# xmcd
#
# Track frame offsets: 
#        150
#        14000
#        24350
#        49025
#        68812
#        82500
#        99945
#        125375
#        151715
#        164925
#        180890
#
# Disc length: 2658 seconds
#
# Revision: 10
# Processed by: cddbd v1.5.2PL0 Copyright (c) Steve Scherf et al.
# Submitted via: ExactAudioCopyFreeDBPlugin 1.0
#
DISCID=760a600b
DTITLE=Lovett, Lyle - Step Inside This House [CD 1)
DYEAR=1998
DGENRE=Country
TTITLE0=Bears
TTITLE1=Lungs
TTITLE2=Step inside this house
TTITLE3=Memphis midnight - Memphis morning
TTITLE4=I've had enough
TTITLE5=Teach me about love
TTITLE6=Sleepwalking
TTITLE7=Ballad of the Snow Leopard and the Tanqueray Cowboy
TTITLE8=More pretty girls than one
TTITLE9=West Texas highway
TTITLE10=Rollin' by
EXTD=
EXTT0=Steven Fromholz
EXTT1=Townes Van Zandt
EXTT2=Guy Clark
EXTT3=Eric Taylor
EXTT4=Vince Bell and Craig Calvert
EXTT5=Walter Hyatt
EXTT6=Willis Alan Ramsey
EXTT7=David Rodriguez
EXTT8=Traditional
EXTT9=Michael Martin Murphey and Boomer Castleman
EXTT10=Robert Earl Keen
PLAYORDER=
